<svg xmlns="http://www.w3.org/2000/svg" viewBox="0 0 590.41529 267.508" role="img" aria-label="Phyla Technologies">
  <defs>
    <style>@import url('https://fonts.googleapis.com/css2?family=Familjen+Grotesk:wght@500;700&amp;display=swap');
      .wm { font-family:'Familjen Grotesk','Helvetica Neue',system-ui,sans-serif; }</style>
  </defs>
  <rect width="590.41529" height="267.508" fill="#211910"/>
  <!-- Phylogenetic-network mark (reversed for dark: light edges, lifted nodes) -->
  <g transform="translate(20,58.75) scale(0.925)">
    <g transform="translate(14,81)">
      <path d="m 12,-40 c 23,0 28,-12 46,-15" stroke="#f4efe7" stroke-width="2.2" fill="none" stroke-linecap="round" opacity="0.6"/>
      <path d="m 12,-40 c 23,2 28,18 46,22" stroke="#f4efe7" stroke-width="2.2" fill="none" stroke-linecap="round" opacity="0.42"/>
      <path d="m 12,-40 c 23,8 28,50 46,58" stroke="#f4efe7" stroke-width="1.5" fill="none" stroke-linecap="round" opacity="0.2"/>
      <path d="M 12,0 C 35,-8 40,-48 58,-55" stroke="#f4efe7" stroke-width="1.5" fill="none" stroke-linecap="round" opacity="0.24"/>
      <path d="M 12,0 C 35,-2 40,-14 58,-18" stroke="#f4efe7" stroke-width="2.2" fill="none" stroke-linecap="round" opacity="0.6"/>
      <path d="M 12,0 C 35,2 40,14 58,18" stroke="#f4efe7" stroke-width="2.2" fill="none" stroke-linecap="round" opacity="0.6"/>
      <path d="M 12,0 C 35,8 40,48 58,55" stroke="#f4efe7" stroke-width="1.5" fill="none" stroke-linecap="round" opacity="0.24"/>
      <path d="M 12,40 C 35,32 40,-10 58,-18" stroke="#f4efe7" stroke-width="1.5" fill="none" stroke-linecap="round" opacity="0.2"/>
      <path d="M 12,40 C 35,38 40,22 58,18" stroke="#f4efe7" stroke-width="2.2" fill="none" stroke-linecap="round" opacity="0.42"/>
      <path d="m 12,40 c 23,0 28,12 46,15" stroke="#f4efe7" stroke-width="2.2" fill="none" stroke-linecap="round" opacity="0.6"/>
      <path d="m 70,-55 c 20,-1 30,-7 48,-13" stroke="#f4efe7" stroke-width="2.5" fill="none" stroke-linecap="round" opacity="0.68"/>
      <path d="m 70,-55 c 20,7 30,25 48,35" stroke="#f4efe7" stroke-width="2" fill="none" stroke-linecap="round" opacity="0.38"/>
      <path d="m 70,-18 c 20,-6 30,-38 48,-50" stroke="#f4efe7" stroke-width="2" fill="none" stroke-linecap="round" opacity="0.38"/>
      <path d="m 70,-18 c 20,0 30,-2 48,-2" stroke="#f4efe7" stroke-width="2.5" fill="none" stroke-linecap="round" opacity="0.68"/>
      <path d="m 70,-18 c 20,8 30,30 48,38" stroke="#f4efe7" stroke-width="2" fill="none" stroke-linecap="round" opacity="0.42"/>
      <path d="m 70,18 c 20,-8 30,-30 48,-38" stroke="#f4efe7" stroke-width="2" fill="none" stroke-linecap="round" opacity="0.42"/>
      <path d="m 70,18 c 20,0 30,2 48,2" stroke="#f4efe7" stroke-width="2.5" fill="none" stroke-linecap="round" opacity="0.68"/>
      <path d="m 70,18 c 20,6 30,38 48,50" stroke="#f4efe7" stroke-width="2" fill="none" stroke-linecap="round" opacity="0.38"/>
      <path d="M 70,55 C 90,48 100,30 118,20" stroke="#f4efe7" stroke-width="2" fill="none" stroke-linecap="round" opacity="0.38"/>
      <path d="m 70,55 c 20,1 30,7 48,13" stroke="#f4efe7" stroke-width="2.5" fill="none" stroke-linecap="round" opacity="0.68"/>
      <circle cx="8" cy="-40" r="9" fill="#b47825"/>
      <circle cx="8" cy="0" r="9" fill="#b47825"/>
      <circle cx="8" cy="40" r="9" fill="#b47825"/>
      <circle cx="64" cy="-55" r="7" fill="#7a9b6d"/>
      <circle cx="64" cy="-18" r="7" fill="#7a9b6d"/>
      <circle cx="64" cy="18" r="7" fill="#7a9b6d"/>
      <circle cx="64" cy="55" r="7" fill="#7a9b6d"/>
      <circle cx="122" cy="-68" r="10" fill="#c17a2a"/>
      <circle cx="122" cy="-20" r="10" fill="#c17a2a"/>
      <circle cx="122" cy="20" r="10" fill="#c17a2a"/>
      <circle cx="122" cy="68" r="10" fill="#c17a2a"/>
    </g>
  </g>
  <!-- Wordmark, reversed -->
  <text class="wm" x="182" y="160" font-size="118" font-weight="700" letter-spacing="-4" fill="#f4efe7">phyla</text>
  <text class="wm" x="186" y="200" font-size="27" font-weight="500" letter-spacing="11" fill="#c9bfae">TECHNOLOGIES</text>
</svg>
