<svg xmlns="http://www.w3.org/2000/svg" viewBox="0 0 590.41529 267.508" width="590.41528" height="267.508" role="img" aria-label="Phyla Technologies">
  <defs>
    <style>@import url('https://fonts.googleapis.com/css2?family=Familjen+Grotesk:wght@400;500;700&amp;display=swap');
      .wm { font-family:'Familjen Grotesk','Helvetica Neue',system-ui,sans-serif; }</style>
  </defs>
  <!-- Phylogenetic-network mark (original geometry, recolored to the Specimen palette) -->
  <g transform="translate(20,130)">
    <!-- connections -->
    <path d="m 12,-40 c 23,0 28,-12 46,-15" stroke="#43382c" stroke-width="2.2" fill="none" stroke-linecap="round" opacity="0.7"/>
    <path d="m 12,-40 c 23,2 28,18 46,22" stroke="#43382c" stroke-width="2.2" fill="none" stroke-linecap="round" opacity="0.5"/>
    <path d="m 12,-40 c 23,8 28,50 46,58" stroke="#43382c" stroke-width="1.5" fill="none" stroke-linecap="round" opacity="0.25"/>
    <path d="M 12,0 C 35,-8 40,-48 58,-55" stroke="#43382c" stroke-width="1.5" fill="none" stroke-linecap="round" opacity="0.3"/>
    <path d="M 12,0 C 35,-2 40,-14 58,-18" stroke="#43382c" stroke-width="2.2" fill="none" stroke-linecap="round" opacity="0.7"/>
    <path d="M 12,0 C 35,2 40,14 58,18" stroke="#43382c" stroke-width="2.2" fill="none" stroke-linecap="round" opacity="0.7"/>
    <path d="M 12,0 C 35,8 40,48 58,55" stroke="#43382c" stroke-width="1.5" fill="none" stroke-linecap="round" opacity="0.3"/>
    <path d="M 12,40 C 35,32 40,-10 58,-18" stroke="#43382c" stroke-width="1.5" fill="none" stroke-linecap="round" opacity="0.25"/>
    <path d="M 12,40 C 35,38 40,22 58,18" stroke="#43382c" stroke-width="2.2" fill="none" stroke-linecap="round" opacity="0.5"/>
    <path d="m 12,40 c 23,0 28,12 46,15" stroke="#43382c" stroke-width="2.2" fill="none" stroke-linecap="round" opacity="0.7"/>
    <path d="m 70,-55 c 20,-1 30,-7 48,-13" stroke="#43382c" stroke-width="2.5" fill="none" stroke-linecap="round" opacity="0.8"/>
    <path d="m 70,-55 c 20,7 30,25 48,35" stroke="#43382c" stroke-width="2" fill="none" stroke-linecap="round" opacity="0.45"/>
    <path d="m 70,-55 c 20,15 30,61 48,75" stroke="#43382c" stroke-width="1.3" fill="none" stroke-linecap="round" opacity="0.2"/>
    <path d="m 70,-18 c 20,-6 30,-38 48,-50" stroke="#43382c" stroke-width="2" fill="none" stroke-linecap="round" opacity="0.45"/>
    <path d="m 70,-18 c 20,0 30,-2 48,-2" stroke="#43382c" stroke-width="2.5" fill="none" stroke-linecap="round" opacity="0.8"/>
    <path d="m 70,-18 c 20,8 30,30 48,38" stroke="#43382c" stroke-width="2" fill="none" stroke-linecap="round" opacity="0.5"/>
    <path d="m 70,-18 c 20,18 30,68 48,86" stroke="#43382c" stroke-width="1.3" fill="none" stroke-linecap="round" opacity="0.2"/>
    <path d="m 70,18 c 20,-8 30,-30 48,-38" stroke="#43382c" stroke-width="2" fill="none" stroke-linecap="round" opacity="0.5"/>
    <path d="m 70,18 c 20,0 30,2 48,2" stroke="#43382c" stroke-width="2.5" fill="none" stroke-linecap="round" opacity="0.8"/>
    <path d="m 70,18 c 20,6 30,38 48,50" stroke="#43382c" stroke-width="2" fill="none" stroke-linecap="round" opacity="0.45"/>
    <path d="M 70,55 C 90,40 100,-6 118,-20" stroke="#43382c" stroke-width="1.3" fill="none" stroke-linecap="round" opacity="0.2"/>
    <path d="M 70,55 C 90,48 100,30 118,20" stroke="#43382c" stroke-width="2" fill="none" stroke-linecap="round" opacity="0.45"/>
    <path d="m 70,55 c 20,1 30,7 48,13" stroke="#43382c" stroke-width="2.5" fill="none" stroke-linecap="round" opacity="0.8"/>
    <!-- nodes -->
    <circle cx="8" cy="-40" r="10" fill="#753b07"/>
    <circle cx="8" cy="0" r="10" fill="#753b07"/>
    <circle cx="8" cy="40" r="10" fill="#753b07"/>
    <circle cx="64" cy="-55" r="8" fill="#4a6e42"/>
    <circle cx="64" cy="-18" r="8" fill="#4a6e42"/>
    <circle cx="64" cy="18" r="8" fill="#4a6e42"/>
    <circle cx="64" cy="55" r="8" fill="#4a6e42"/>
    <circle cx="122" cy="-68" r="11" fill="#542300"/>
    <circle cx="122" cy="-20" r="11" fill="#542300"/>
    <circle cx="122" cy="20" r="11" fill="#542300"/>
    <circle cx="122" cy="68" r="11" fill="#542300"/>
  </g>
  <!-- Company name (original positions/sizes; font + color updated) -->
  <text class="wm" x="180" y="138" font-size="115px" font-weight="700" letter-spacing="-3" fill="#211910">phyla</text>
  <text class="wm" x="184" y="202" font-size="34px" font-weight="400" letter-spacing="10.5" fill="#43382c">TECHNOLOGIES</text>
</svg>
