<svg viewBox="0 0 152 162" xmlns="http://www.w3.org/2000/svg" role="img" aria-label="Phyla phylogenetic-network mark">
  <g transform="translate(14,81)">
    <path d="m 12,-40 c 23,0 28,-12 46,-15" stroke="oklch(35% 0.025 70)" stroke-width="2.2" fill="none" stroke-linecap="round" opacity="0.7"/>
    <path d="m 12,-40 c 23,2 28,18 46,22" stroke="oklch(35% 0.025 70)" stroke-width="2.2" fill="none" stroke-linecap="round" opacity="0.5"/>
    <path d="m 12,-40 c 23,8 28,50 46,58" stroke="oklch(35% 0.025 70)" stroke-width="1.5" fill="none" stroke-linecap="round" opacity="0.25"/>
    <path d="M 12,0 C 35,-8 40,-48 58,-55" stroke="oklch(35% 0.025 70)" stroke-width="1.5" fill="none" stroke-linecap="round" opacity="0.3"/>
    <path d="M 12,0 C 35,-2 40,-14 58,-18" stroke="oklch(35% 0.025 70)" stroke-width="2.2" fill="none" stroke-linecap="round" opacity="0.7"/>
    <path d="M 12,0 C 35,2 40,14 58,18" stroke="oklch(35% 0.025 70)" stroke-width="2.2" fill="none" stroke-linecap="round" opacity="0.7"/>
    <path d="M 12,0 C 35,8 40,48 58,55" stroke="oklch(35% 0.025 70)" stroke-width="1.5" fill="none" stroke-linecap="round" opacity="0.3"/>
    <path d="M 12,40 C 35,32 40,-10 58,-18" stroke="oklch(35% 0.025 70)" stroke-width="1.5" fill="none" stroke-linecap="round" opacity="0.25"/>
    <path d="M 12,40 C 35,38 40,22 58,18" stroke="oklch(35% 0.025 70)" stroke-width="2.2" fill="none" stroke-linecap="round" opacity="0.5"/>
    <path d="m 12,40 c 23,0 28,12 46,15" stroke="oklch(35% 0.025 70)" stroke-width="2.2" fill="none" stroke-linecap="round" opacity="0.7"/>
    <path d="m 70,-55 c 20,-1 30,-7 48,-13" stroke="oklch(35% 0.025 70)" stroke-width="2.5" fill="none" stroke-linecap="round" opacity="0.8"/>
    <path d="m 70,-55 c 20,7 30,25 48,35" stroke="oklch(35% 0.025 70)" stroke-width="2" fill="none" stroke-linecap="round" opacity="0.45"/>
    <path d="m 70,-55 c 20,15 30,61 48,75" stroke="oklch(35% 0.025 70)" stroke-width="1.3" fill="none" stroke-linecap="round" opacity="0.2"/>
    <path d="m 70,-18 c 20,-6 30,-38 48,-50" stroke="oklch(35% 0.025 70)" stroke-width="2" fill="none" stroke-linecap="round" opacity="0.45"/>
    <path d="m 70,-18 c 20,0 30,-2 48,-2" stroke="oklch(35% 0.025 70)" stroke-width="2.5" fill="none" stroke-linecap="round" opacity="0.8"/>
    <path d="m 70,-18 c 20,8 30,30 48,38" stroke="oklch(35% 0.025 70)" stroke-width="2" fill="none" stroke-linecap="round" opacity="0.5"/>
    <path d="m 70,-18 c 20,18 30,68 48,86" stroke="oklch(35% 0.025 70)" stroke-width="1.3" fill="none" stroke-linecap="round" opacity="0.2"/>
    <path d="m 70,18 c 20,-8 30,-30 48,-38" stroke="oklch(35% 0.025 70)" stroke-width="2" fill="none" stroke-linecap="round" opacity="0.5"/>
    <path d="m 70,18 c 20,0 30,2 48,2" stroke="oklch(35% 0.025 70)" stroke-width="2.5" fill="none" stroke-linecap="round" opacity="0.8"/>
    <path d="m 70,18 c 20,6 30,38 48,50" stroke="oklch(35% 0.025 70)" stroke-width="2" fill="none" stroke-linecap="round" opacity="0.45"/>
    <path d="M 70,55 C 90,40 100,-6 118,-20" stroke="oklch(35% 0.025 70)" stroke-width="1.3" fill="none" stroke-linecap="round" opacity="0.2"/>
    <path d="M 70,55 C 90,48 100,30 118,20" stroke="oklch(35% 0.025 70)" stroke-width="2" fill="none" stroke-linecap="round" opacity="0.45"/>
    <path d="m 70,55 c 20,1 30,7 48,13" stroke="oklch(35% 0.025 70)" stroke-width="2.5" fill="none" stroke-linecap="round" opacity="0.8"/>
    <circle cx="8" cy="-40" r="9" fill="oklch(42% 0.10 55)"/>
    <circle cx="8" cy="0" r="9" fill="oklch(42% 0.10 55)"/>
    <circle cx="8" cy="40" r="9" fill="oklch(42% 0.10 55)"/>
    <circle cx="64" cy="-55" r="7" fill="oklch(50% 0.08 140)"/>
    <circle cx="64" cy="-18" r="7" fill="oklch(50% 0.08 140)"/>
    <circle cx="64" cy="18" r="7" fill="oklch(50% 0.08 140)"/>
    <circle cx="64" cy="55" r="7" fill="oklch(50% 0.08 140)"/>
    <circle cx="122" cy="-68" r="10" fill="oklch(32% 0.09 55)"/>
    <circle cx="122" cy="-20" r="10" fill="oklch(32% 0.09 55)"/>
    <circle cx="122" cy="20" r="10" fill="oklch(32% 0.09 55)"/>
    <circle cx="122" cy="68" r="10" fill="oklch(32% 0.09 55)"/>
  </g>
</svg>
